<svg width="128" height="128" viewBox="0 0 128 128" xmlns="http://www.w3.org/2000/svg">
  <!-- Fondo negro -->
  <rect width="128" height="128" rx="24" fill="#000000"/>
  
  <!-- Efectos y patrones -->
  <defs>
    <filter id="glow">
      <feGaussianBlur stdDeviation="3" result="coloredBlur"/>
      <feMerge>
        <feMergeNode in="coloredBlur"/>
        <feMergeNode in="SourceGraphic"/>
      </feMerge>
    </filter>
    
    <pattern id="tiktokGrid" x="0" y="0" width="32" height="32" patternUnits="userSpaceOnUse">
      <line x1="0" y1="16" x2="32" y2="16" stroke="#FF0050" stroke-width="0.5" opacity="0.1"/>
      <line x1="16" y1="0" x2="16" y2="32" stroke="#00F2EA" stroke-width="0.5" opacity="0.1"/>
    </pattern>
  </defs>
  
  <!-- Patrón de fondo -->
  <rect width="128" height="128" rx="24" fill="url(#tiktokGrid)"/>
  
  <!-- Grupo principal -->
  <g transform="translate(64, 47.5)">
    <!-- Corazón con efecto TikTok glitch -->
    <!-- Capa cyan -->
    <path d="M0 -20C-5 -20 -10 -17.5 -13.75 -13.75C-17.5 -10 -20 -5 -20 0C-20 20 0 35 0 35C0 35 20 20 20 0C20 -5 17.5 -10 13.75 -13.75C10 -17.5 5 -20 0 -20Z" 
          fill="#00F2EA" transform="translate(-3, -3)" opacity="0.7" filter="url(#glow)"/>
    <!-- Capa roja -->
    <path d="M0 -20C-5 -20 -10 -17.5 -13.75 -13.75C-17.5 -10 -20 -5 -20 0C-20 20 0 35 0 35C0 35 20 20 20 0C20 -5 17.5 -10 13.75 -13.75C10 -17.5 5 -20 0 -20Z" 
          fill="#FF0050" transform="translate(3, 3)" opacity="0.7" filter="url(#glow)"/>
    <!-- Corazón principal blanco -->
    <path d="M0 -20C-5 -20 -10 -17.5 -13.75 -13.75C-17.5 -10 -20 -5 -20 0C-20 20 0 35 0 35C0 35 20 20 20 0C20 -5 17.5 -10 13.75 -13.75C10 -17.5 5 -20 0 -20Z" 
          fill="white">
      <animateTransform attributeName="transform" type="scale" values="1;1.15;1" dur="2s" repeatCount="indefinite"/>
    </path>
    
    <!-- Logo TikTok musical note / play button -->
    <g transform="translate(0, -2)">
      <circle cx="0" cy="0" r="8" fill="#000000"/>
      <polygon points="-3,-4 -3,4 4,0" fill="white"/>
    </g>
    
    <!-- Efectos de onda estilo TikTok -->
    <circle cx="0" cy="0" r="30" fill="none" stroke="#FF0050" stroke-width="2" opacity="0.4">
      <animate attributeName="r" values="30;45;30" dur="3s" repeatCount="indefinite"/>
      <animate attributeName="opacity" values="0.4;0;0.4" dur="3s" repeatCount="indefinite"/>
    </circle>
    <circle cx="0" cy="0" r="30" fill="none" stroke="#00F2EA" stroke-width="2" opacity="0.4">
      <animate attributeName="r" values="30;45;30" dur="3s" begin="1.5s" repeatCount="indefinite"/>
      <animate attributeName="opacity" values="0.4;0;0.4" dur="3s" begin="1.5s" repeatCount="indefinite"/>
    </circle>
  </g>
  
  <!-- Texto con efecto glitch TikTok -->
  <g transform="translate(64, 105)">
    <!-- Sombra magenta -->
    <text x="0.45" y="0.45" font-family="Arial Black, sans-serif" font-size="14" font-weight="900" text-anchor="middle" fill="#FF0050">AUTO TAP-TAP</text><!-- Texto Magenta-->
    <!-- Sombra cyan -->
    <text x="-0.45" y="-0.45" font-family="Arial Black, sans-serif" font-size="14" font-weight="900" text-anchor="middle" fill="#00F2EA">AUTO TAP-TAP</text><!-- Texto Cyan-->
    <!-- Texto principal -->
    <text x="0" y="0" font-family="Arial Black, sans-serif" font-size="14" font-weight="900" text-anchor="middle" fill="#FFFFFF">AUTO TAP-TAP</text><!-- Texto Blanco-->
  </g>
</svg>