<svg width="96" height="96" viewBox="0 0 96 96" xmlns="http://www.w3.org/2000/svg">
  <!-- Fondo negro -->
  <rect width="96" height="96" rx="18" fill="#000000"/>
  
  <!-- Patrón de fondo estilo TikTok -->
  <defs>
    <pattern id="tiktokPattern" x="0" y="0" width="20" height="20" patternUnits="userSpaceOnUse">
      <circle cx="10" cy="10" r="1" fill="#FF0050" opacity="0.2"/>
      <circle cx="0" cy="0" r="1" fill="#00F2EA" opacity="0.2"/>
      <circle cx="20" cy="20" r="1" fill="#00F2EA" opacity="0.2"/>
    </pattern>
  </defs>
  <rect width="96" height="96" rx="18" fill="url(#tiktokPattern)"/>
  
  <!-- Grupo principal -->
  <g transform="translate(48, 35)">
    <!-- Corazón con efecto TikTok -->
    <!-- Sombra cyan -->
    <path d="M0 -16C-4 -16 -8 -14 -11 -11C-14 -8 -16 -4 -16 0C-16 16 0 28 0 28C0 28 16 16 16 0C16 -4 14 -8 11 -11C8 -14 4 -16 0 -16Z" 
          fill="#00F2EA" transform="translate(-2, -2)" opacity="0.6"/>
    <!-- Sombra roja -->
    <path d="M0 -16C-4 -16 -8 -14 -11 -11C-14 -8 -16 -4 -16 0C-16 16 0 28 0 28C0 28 16 16 16 0C16 -4 14 -8 11 -11C8 -14 4 -16 0 -16Z" 
          fill="#FF0050" transform="translate(2, 2)" opacity="0.6"/>
    <!-- Corazón principal blanco -->
    <path d="M0 -16C-4 -16 -8 -14 -11 -11C-14 -8 -16 -4 -16 0C-16 16 0 28 0 28C0 28 16 16 16 0C16 -4 14 -8 11 -11C8 -14 4 -16 0 -16Z" 
          fill="white">
      <animateTransform attributeName="transform" type="scale" values="1;1.1;1" dur="2s" repeatCount="indefinite"/>
    </path>
    
    <!-- Símbolo de automatización con estilo TikTok -->
    <g transform="translate(0, -2)">
      <circle cx="0" cy="0" r="6" fill="#000000"/>
      <polygon points="-2.5,-3 -2.5,3 3,0" fill="white"/>
    </g>
    
    <!-- Ondas estilo TikTok -->
    <circle cx="0" cy="0" r="25" fill="none" stroke="#FF0050" stroke-width="1.5" opacity="0.3">
      <animate attributeName="r" values="25;35;25" dur="2s" repeatCount="indefinite"/>
      <animate attributeName="opacity" values="0.3;0;0.3" dur="2s" repeatCount="indefinite"/>
    </circle>
    <circle cx="0" cy="0" r="25" fill="none" stroke="#00F2EA" stroke-width="1.5" opacity="0.3">
      <animate attributeName="r" values="25;35;25" dur="2s" begin="1s" repeatCount="indefinite"/>
      <animate attributeName="opacity" values="0.3;0;0.3" dur="2s" begin="1s" repeatCount="indefinite"/>
    </circle>
  </g>
  
  <!-- Texto con efecto TikTok -->
  <text x="5.25" y="80.25" font-family="Arial Black, sans-serif" font-size="11" font-weight="900" fill="#FF0050">AUTO TAP-TAP</text><!-- Texto Magenta-->
  <text x="4.75" y="79.75" font-family="Arial Black, sans-serif" font-size="11" font-weight="900" fill="#00F2EA">AUTO TAP-TAP</text><!-- Texto Cyan-->
  <text x="5" y="80" font-family="Arial Black, sans-serif" font-size="11" font-weight="900" fill="#FFFFFF">AUTO TAP-TAP</text><!-- Texto Blanco-->
</svg>