<svg width="16" height="16" viewBox="0 0 16 16" xmlns="http://www.w3.org/2000/svg">
  <defs>
    <filter id="tiktok16">
      <feGaussianBlur in="SourceGraphic" stdDeviation="0.5" result="blur" />
      <feOffset in="blur" dx="0.5" dy="0.5" result="offsetblur" />
    </filter>
  </defs>
  <!-- Fondo negro -->
  <rect width="16" height="16" rx="3" fill="#000000"/>
  
  <!-- Corazón con efecto TikTok -->
  <!-- Sombra cyan -->
  <path d="M8 12C8 12 3 9.5 3 6C3 4.5 4 3.5 5 3.5C6 3.5 7 4 8 5C9 4 10 3.5 11 3.5C12 3.5 13 4.5 13 6C13 9.5 8 12 8 12Z" 
        fill="#00F2EA" transform="translate(-0.5, -0.5)" opacity="0.8"/>
  <!-- Sombra roja -->
  <path d="M8 12C8 12 3 9.5 3 6C3 4.5 4 3.5 5 3.5C6 3.5 7 4 8 5C9 4 10 3.5 11 3.5C12 3.5 13 4.5 13 6C13 9.5 8 12 8 12Z" 
        fill="#FF0050" transform="translate(0.5, 0.5)" opacity="0.8"/>
  <!-- Corazón principal blanco -->
  <path d="M8 12C8 12 3 9.5 3 6C3 4.5 4 3.5 5 3.5C6 3.5 7 4 8 5C9 4 10 3.5 11 3.5C12 3.5 13 4.5 13 6C13 9.5 8 12 8 12Z" 
        fill="white">
        <animateTransform attributeName="transform" type="scale" values="1;1.025;1" dur="2s" repeatCount="indefinite"/>
  </path>
</svg>