<svg width="48" height="48" viewBox="0 0 48 48" xmlns="http://www.w3.org/2000/svg">
  <!-- Fondo negro -->
  <rect width="48" height="48" rx="10" fill="#000000"/>
  
  <!-- Grupo principal -->
  <g transform="translate(24, 18)">
    <!-- Corazón con efecto TikTok -->
    <!-- Sombra cyan -->
    <path d="M0 -8C-2 -8 -4 -7 -5.5 -5.5C-7 -4 -8 -2 -8 0C-8 8 0 14 0 14C0 14 8 8 8 0C8 -2 7 -4 5.5 -5.5C4 -7 2 -8 0 -8Z" 
          fill="#00F2EA" transform="translate(-1.5, -1.5)" opacity="0.7"/>
    <!-- Sombra roja -->
    <path d="M0 -8C-2 -8 -4 -7 -5.5 -5.5C-7 -4 -8 -2 -8 0C-8 8 0 14 0 14C0 14 8 8 8 0C8 -2 7 -4 5.5 -5.5C4 -7 2 -8 0 -8Z" 
          fill="#FF0050" transform="translate(1.5, 1.5)" opacity="0.7"/>
    <!-- Corazón principal blanco -->
    <path d="M0 -8C-2 -8 -4 -7 -5.5 -5.5C-7 -4 -8 -2 -8 0C-8 8 0 14 0 14C0 14 8 8 8 0C8 -2 7 -4 5.5 -5.5C4 -7 2 -8 0 -8Z" 
          fill="white">
      <animateTransform attributeName="transform" type="scale" values="1;1.1;1" dur="2s" repeatCount="indefinite"/>
    </path>
    
    <!-- Símbolo de play -->
    <polygon points="-3,-1 -3,5 2,2" fill="#000000" opacity="0.8"/>
  </g>
  
  <!-- Texto AUTO con efecto TikTok -->
  <text x="5.175" y="40.15" font-family="Arial Black, sans-serif" font-size="5" font-weight="900" fill="#FF0050">AUTO TAP-TAP</text><!-- Texto Magenta-->
  <text x="4.825" y="39.85" font-family="Arial Black, sans-serif" font-size="5" font-weight="900" fill="#00F2EA">AUTO TAP-TAP</text><!-- Texto Cyan-->
  <text x="5" y="40" font-family="Arial Black, sans-serif" font-size="5" font-weight="900" fill="#FFFFFF">AUTO TAP-TAP</text><!-- Texto Blanco-->
</svg>